<svg width="128" height="128" xmlns="http://www.w3.org/2000/svg" version="1.1">
 <!-- Generator: Sketch 3.6.1 (26313) - http://www.bohemiancoding.com/sketch -->
 <title>booth_logo</title>
 <desc>Created with Sketch.</desc>

 <g>
  <title>Layer 1</title>
  <g stroke="null" fill-rule="evenodd" fill="none" id="Market-Views">
   <g stroke="null" id="booth_logo">
    <path stroke="null" fill="#FFFFFF" id="Combined-Shape" d="m116.32181,49.2202l0,-9.84898l-24.60392,-39.37122l-8.48965,0l-13.43268,32.21619l-13.19789,-27.74275l-7.38983,-0.01236l-22.3672,52.8039l0,-50.10995l-15.21217,0l0,4.43637l-11.62847,0l0,15.43461l11.62847,0l0,44.5614c0,3.95442 3.21297,7.15503 7.16739,7.15503l7.59991,0l0,49.12134l15.52111,0l0,-22.24363c0,-12.3205 10.66458,-22.31777 23.85011,-22.39192l0.14829,0l0.01236,0l0.01236,0c21.57632,0.01236 39.04992,16.32435 39.04992,36.44248l0,8.19307l11.33189,0l0,-44.0671l11.62847,0l0,-24.35677l-11.62847,-10.21971z"/>
   </g>
  </g>
 </g>
</svg>